<?xml version="1.0" encoding="iso-8859-1"?>
<!-- Generator: Adobe Illustrator 19.0.0, SVG Export Plug-In . SVG Version: 6.00 Build 0)  -->
<svg width="31" height="31" version="1.1" id="Capa_1" xmlns="http://www.w3.org/2000/svg" xmlns:xlink="http://www.w3.org/1999/xlink" x="0px" y="0px" viewBox="0 0 512 512" style="enable-background:new 0 0 512 512;" xml:space="preserve">
<g><g><path stroke="white" d="M333.728,323.737c-26.404,0.912-11.483,29.813-68.033,9.97c-10.59-3.715-22.158-5.877-34.514-6.457
			c5.35-12.329,8.549-24.989,9.285-37.964h23.494c13.783,0,24.996-11.213,24.996-24.996c0-13.783-11.213-24.996-24.996-24.996
			h-33.689c-0.334-0.687-0.673-1.363-1.015-2.027c-14.497-28.169-10.463-65.964,26.746-65.964c21.864,0,34.353,7.834,37.119,23.282
			c3.909,21.841,32.434,28.091,45.118,9.877c3.814-5.48,5.268-12.118,4.09-18.688c-6.551-36.593-36.384-64.463-86.327-64.463
			c-65.708,0-97.289,59.037-79.615,117.982h-8.727c-13.783,0-24.996,11.213-24.996,24.996c0,13.783,11.213,24.996,24.996,24.996
			h22.709c-2.66,24.053-21.572,44.417-30.182,52.548c-8.616,8.136-10.318,21.34-4.048,31.399
			c6.272,10.058,18.879,14.341,29.911,10.206c0.348-0.125,35.073-12.392,63.094-2.561c3.905,1.371,8.187-0.685,9.557-4.594
			c1.371-3.907-0.685-8.187-4.594-9.558c-33.673-11.812-72.846,2.493-73.253,2.644c-4.437,1.664-9.479-0.05-11.989-4.072
			c-2.509-4.023-1.828-9.306,1.619-12.561c13.59-12.834,36.226-39.149,35.159-71.2c-0.135-4.041-3.45-7.249-7.495-7.249h-30.489
			c-5.513,0-9.998-4.485-9.998-9.998c0-5.513,4.485-9.998,9.998-9.998h19.29c2.49,0,4.817-1.236,6.212-3.299
			c1.395-2.063,1.675-4.683,0.747-6.994c-20.699-51.552,2.815-107.688,62.094-107.688c42.332,0,66.252,22.427,71.564,52.109
			c0.472,2.629-0.109,5.282-1.636,7.475c-5.061,7.269-16.478,4.806-18.047-3.949c-2.383-13.31-12.291-35.638-51.882-35.638
			c-49.455,0-59.632,49.833-40.081,87.825c0.92,1.785,1.814,3.681,2.657,5.635c1.186,2.747,3.892,4.525,6.885,4.525h38.497
			c5.513,0,9.998,4.485,9.998,9.998c0,5.513-4.485,9.998-9.998,9.998c-32.954,0-33.259-0.749-36.199,2.248
			c-1.411,1.438-2.184,3.381-2.145,5.395c0.334,17.323-4.643,33.895-12.994,49.147c-1.294,2.364-1.22,5.241,0.194,7.535
			c1.414,2.296,3.976,3.669,6.644,3.559c15.132-0.528,29.018,1.388,41.269,5.687c34.349,12.053,51.143,10.55,66.553-5.964
			c3.843-4.12,10.184-4.171,14.131-0.487c4.04,3.771,4.258,10.091,0.486,14.133c-12.683,13.591-27.41,20.198-45.024,20.2
			c-5.899,0-12.126-0.701-19.036-2.145c-4.058-0.845-8.027,1.755-8.873,5.808c-0.847,4.054,1.754,8.027,5.808,8.873
			c30.953,6.464,56.599,0.525,78.09-22.503C368.117,349.434,355.814,323.015,333.728,323.737z"/>
</g></g>
<g>
	<g>
		<path  stroke="white" d="M436.949,75.022C336.92-25.004,175.028-25.01,74.992,75.022C26.651,123.364,0.029,187.636,0.029,256
			s26.622,132.636,74.963,180.978c100.028,100.026,261.921,100.034,361.957,0C536.975,336.95,536.983,175.058,436.949,75.022z
			 M255.971,496.944c-132.857,0-240.945-108.086-240.945-240.943S123.114,15.058,255.971,15.058
			c132.856,0,240.944,108.086,240.944,240.943S388.827,496.944,255.971,496.944z"/>
	</g>
</g>
<g>
	<g>
		<path d="M372.33,74.629c-3.484-2.24-8.125-1.231-10.362,2.253c-2.24,3.483-1.231,8.124,2.253,10.362
			c57.743,37.12,92.216,100.207,92.216,168.756c0,110.537-89.929,200.466-200.466,200.466S55.506,366.537,55.506,256
			S145.434,55.535,255.971,55.535c29.244,0,57.429,6.153,83.772,18.287c3.762,1.734,8.215,0.089,9.948-3.673
			c1.732-3.761,0.088-8.216-3.674-9.948c-28.324-13.047-58.621-19.663-90.047-19.663C136.882,40.537,40.507,136.906,40.507,256
			c0,57.551,22.412,111.66,63.107,152.356c84.21,84.208,220.496,84.212,304.712,0C505.38,311.3,488.269,149.159,372.33,74.629z"/>
	</g>
</g>
<g>
</g>
<g>
</g>
<g>
</g>
<g>
</g>
<g>
</g>
<g>
</g>
<g>
</g>
<g>
</g>
<g>
</g>
<g>
</g>
<g>
</g>
<g>
</g>
<g>
</g>
<g>
</g>
<g>
</g>
</svg>
